<svg xmlns="http://www.w3.org/2000/svg" xmlns:xlink="http://www.w3.org/1999/xlink" width="17" height="17" viewBox="0 0 17 17"><defs><clipPath id="a"><rect width="17" height="17" fill="none"/></clipPath><clipPath id="b"><rect x="0.39" y="1.33" width="16.61" height="13.48" fill="none"/></clipPath><clipPath id="c"><path d="M4,1.33a.47.47,0,0,0-.25.07C3.46,1.58,1.35,2.87.72,3.26l0,0a.61.61,0,0,0-.28.53V9.54A.57.57,0,0,0,.73,10c.25.13,6.76,4.2,7.63,4.72a.81.81,0,0,0,.34.08h0A.67.67,0,0,0,9,14.72c.9-.5,7.38-4.58,7.63-4.71A.6.6,0,0,0,17,9.54V3.81a.59.59,0,0,0-.29-.52C16.6,3.22,14,1.62,13.6,1.41a.53.53,0,0,0-.25-.08.48.48,0,0,0-.24.07s-2.85,1.79-3.29,2a2.42,2.42,0,0,1-2.14.06c-.45-.17-3.4-2.09-3.4-2.09A.48.48,0,0,0,4,1.33Z" fill="none"/></clipPath><clipPath id="d"><path d="M8.66,8.08v6.73h0A.73.73,0,0,0,9,14.73c.88-.51,7.38-4.59,7.63-4.72A.56.56,0,0,0,17,9.54V3.82a.55.55,0,0,0-.07-.28Z" fill="none"/></clipPath><clipPath id="e"><path d="M.39,3.86V9.52A.57.57,0,0,0,.72,10c.25.13,6.68,4.16,7.55,4.67a.76.76,0,0,0,.33.08h0V8.07L.45,3.58a.67.67,0,0,0-.06.28" fill="none"/></clipPath></defs><g clip-path="url(#a)"><g clip-path="url(#b)"><g clip-path="url(#c)"><rect x="0.34" y="1.27" width="16.72" height="13.61" transform="translate(-0.06 0.07) rotate(-0.44)" fill="#fff"/></g><g clip-path="url(#d)"><rect x="3.89" y="-0.01" width="17.92" height="18.36" fill="#ededed"/></g><g clip-path="url(#e)"><rect x="-2.42" y="2.45" width="13.86" height="13.42" transform="translate(-5.45 6.93) rotate(-51.15)" fill="#fff"/></g></g></g></svg>