<svg xmlns="http://www.w3.org/2000/svg" xmlns:xlink="http://www.w3.org/1999/xlink" width="456" height="976" viewBox="0 0 456 976"><defs><linearGradient id="a" x1="-1169.9" y1="-588.85" x2="-1169.9" y2="-589.85" gradientTransform="matrix(456, 0, 0, -976, 533702.52, -574716.77)" gradientUnits="userSpaceOnUse"><stop offset="0" stop-color="#bede7f"/><stop offset="0.55" stop-color="#c8e098"/><stop offset="0.66" stop-color="#536e20"/><stop offset="1" stop-color="#bede7f"/></linearGradient><linearGradient id="b" x1="-1169.4" y1="-591.73" x2="-1170.54" y2="-590.94" gradientTransform="matrix(456.74, 0, 0, -407.77, 534566.17, -240704.78)" gradientUnits="userSpaceOnUse"><stop offset="0" stop-color="#1c1c1b" stop-opacity="0.86"/><stop offset="1" stop-color="#fff" stop-opacity="0"/></linearGradient></defs><rect width="456" height="976" fill="url(#a)"/><path d="M456,325.09l-65.75-38v14.05L456,340.06Z" fill="#ff8f1c"/><path d="M356.12,252.62v14.49l35,20.69v-15Z" fill="#fff"/><path d="M116.34,474.16l-65.75-38v14.05l65.75,38.88Z" fill="#e56f14"/><path d="M15.59,401.69v14.48l35,20.69v-15Z" fill="#fff"/><path d="M209,528.07l-65.75-38v14.05L209,543Z" fill="#e56f14"/><path d="M370.22,561,174.43,446.19v49.33L370.22,611.63Z" fill="#fff"/><path d="M456,338.54,0,75.25V382.53L456,652.16Z" fill="#ff8f1c"/><path d="M455.83,508.28-.91,244.17V381.65L455.83,651.94Z" fill="url(#b)"/></svg>