<svg xmlns="http://www.w3.org/2000/svg" xmlns:xlink="http://www.w3.org/1999/xlink" width="455" height="976" viewBox="0 0 455 976"><defs><linearGradient id="a" x1="-115.25" y1="-577.89" x2="-115.25" y2="-578.89" gradientTransform="matrix(455, 0, 0, -976, 52667.05, -564023.28)" gradientUnits="userSpaceOnUse"><stop offset="0" stop-color="#b7c12e"/><stop offset="0.55" stop-color="#c9d53c"/><stop offset="0.66" stop-color="#747e00"/><stop offset="1" stop-color="#b7c12e"/></linearGradient><linearGradient id="b" x1="-114.74" y1="-580.75" x2="-115.89" y2="-579.97" gradientTransform="matrix(457.05, 0, 0, -408.57, 52902.35, -236693.94)" gradientUnits="userSpaceOnUse"><stop offset="0" stop-color="#1c1c1b" stop-opacity="0.86"/><stop offset="1" stop-color="#fff" stop-opacity="0"/></linearGradient></defs><rect width="455" height="976" fill="url(#a)"/><path d="M455,322.86l-65.75-38V299L455,337.82Z" fill="#ff8f1c"/><path d="M353,250.37v14.49l35,20.69v-15Z" fill="#fff"/><path d="M116.08,472,50.33,434v14.05L116.08,487Z" fill="#e56f14"/><path d="M15.33,399.49V414l35,20.69v-15Z" fill="#fff"/><path d="M208.5,525.92l-65.75-38V502l65.75,38.87Z" fill="#e56f14"/><path d="M369.46,558.85,173.67,444.08v49.33L369.46,609.53Z" fill="#fff"/><path d="M455,336.31-.29,72.93V380.32L455,650Z" fill="#ff8f1c"/><path d="M455,506.12-2,241.47V379L455,650Z" fill="url(#b)"/></svg>