<svg xmlns="http://www.w3.org/2000/svg" xmlns:xlink="http://www.w3.org/1999/xlink" width="456" height="976" viewBox="0 0 456 976"><defs><linearGradient id="a" x1="-631.12" y1="-588.85" x2="-631.12" y2="-589.85" gradientTransform="matrix(456, 0, 0, -976, 288018.72, -574716.77)" gradientUnits="userSpaceOnUse"><stop offset="0" stop-color="#336b3e"/><stop offset="0.55" stop-color="#489d59"/><stop offset="0.66" stop-color="#25502e"/><stop offset="1" stop-color="#336b3e"/></linearGradient><linearGradient id="b" x1="-630.61" y1="-591.74" x2="-631.76" y2="-590.95" gradientTransform="matrix(456.91, 0, 0, -407.26, 288591.33, -240400.51)" gradientUnits="userSpaceOnUse"><stop offset="0" stop-color="#1c1c1b" stop-opacity="0.86"/><stop offset="1" stop-color="#fff" stop-opacity="0"/></linearGradient></defs><rect width="456" height="976" fill="url(#a)"/><path d="M455.12,324.64l-65.75-38v14.06l65.75,38.87Z" fill="#ff8f1c"/><path d="M354.37,252.26v14.49l35,20.69v-15Z" fill="#fff"/><path d="M116.34,473.4l-65.75-38v14.05l65.75,38.88Z" fill="#e56f14"/><path d="M15.59,401V415.5l35,20.69v-15Z" fill="#fff"/><path d="M208.71,527.19l-65.75-38v14l65.75,38.88Z" fill="#e56f14"/><path d="M369.63,559.85,173.84,445.08v49.33L369.63,610.53Z" fill="#fff"/><path d="M455.12,338,0,75.25V381.94L455.12,651Z" fill="#ff8f1c"/><path d="M456,508-.91,244.17V381.28L456,651.42Z" fill="url(#b)"/></svg>