<svg xmlns="http://www.w3.org/2000/svg" width="406.4" height="218.5" viewBox="0 0 406.4 218.5"><g style="isolation:isolate"><text transform="translate(0 35.91)" font-size="47" fill="#fff" font-family="PSLKittithadaProBold, PSL Kittithada Pro" style="isolation:isolate">พร้อม</text></g><g style="isolation:isolate"><text transform="translate(193.47 200.52)" font-size="58" fill="#fff" font-family="PSLKittithadaProBold, PSL Kittithada Pro" style="isolation:isolate">กับเราหรือยัง</text></g><path d="M91.67,80.75a33.78,33.78,0,0,0-6.5-7.31,25,25,0,0,0-13.3-6.15,49.82,49.82,0,0,0-7.11-.53A1.54,1.54,0,0,0,63,68a.88.88,0,0,0,0,.16Q60.53,78.89,58.05,89.6l-1.41,6.15a2.07,2.07,0,0,0,0,1.49,70.48,70.48,0,0,1,11-1.2A44.55,44.55,0,0,1,79,97c3.85.93,5.9,3.39,6.07,7.37.2,4.61-1.24,8.82-3,12.87-.6.28-.86-.12-1.17-.33A21.26,21.26,0,0,0,69,113.08c-4.68-.11-9.38,0-14.07,0-2,0-2-.14-2.66,2-1.88,6-3.73,11.92-5.73,17.84-1.93,5.72-4.59,11.06-9,15.35-6.52,6.4-14.46,9-23.45,8.3a13.62,13.62,0,0,1-10.9-6.65A22.23,22.23,0,0,1,0,139.52c-.07-1,.24-1.51,1.31-1.56,4.71-.22,8.65-2.26,12.6-4.72a26.41,26.41,0,0,0,10.61-12.78c3-7.14,5.58-14.43,8.29-21.68,3.37-9,6.76-18,9.79-27.19A4.12,4.12,0,0,0,43,69.8a4.44,4.44,0,0,0-2.55.57,28.11,28.11,0,0,0-15,13.46,15.52,15.52,0,0,0-1.76,6.64c-.1,2.17-.37,4.33-.34,6.51,0,1.34,0,1.42-1.33,1.36-5.33-.26-9.57-2.58-11.64-7.54-4-9.53-2.74-19.94,5.86-27.48,5-4.39,11-7,17.19-9.07S46,51.31,52.41,50.53A138.27,138.27,0,0,1,73.35,49.4a61.66,61.66,0,0,1,15.11,2,19.53,19.53,0,0,1,9.31,5.2c3.55,3.8,4.49,8.15,2.59,13C98.61,74.1,95.51,77.59,91.67,80.75Z" fill="#fff"/><path d="M122.71,139.24c-.77.75-1.5,1.43-2.2,2.13a79.39,79.39,0,0,1-8.25,7,21.32,21.32,0,0,1-11.71,4.22,39.76,39.76,0,0,1-6.9.18c-5.08-.58-8.52-3.79-9.55-9.36a32.82,32.82,0,0,1,1-14.9,118.22,118.22,0,0,1,6.16-16.37c3.2-7.19,6.81-14.2,9.75-21.51a24.92,24.92,0,0,0,1.86-6,1.41,1.41,0,0,1,1.24-1.36A139.52,139.52,0,0,1,120.74,80a11.8,11.8,0,0,1,3.46,0,4.86,4.86,0,0,1,4.38,5.06,13.19,13.19,0,0,1-1.47,6.28c-2,4.1-3.88,8.22-5.91,12.29q-6.35,12.66-12.78,25.28a15.2,15.2,0,0,0-1.63,5c-.33,2.78,1.31,4.39,4.13,4.05a12.5,12.5,0,0,0,5.56-2.38,41.7,41.7,0,0,0,12.83-14.81c2-3.6,3.06-7.54,4.5-11.34,2.95-7.74,5.94-15.45,9.3-23A4.47,4.47,0,0,1,145.6,84,38.94,38.94,0,0,1,156.33,81a16.81,16.81,0,0,1,7,.6,3.2,3.2,0,0,1,2.46,2.89,17.56,17.56,0,0,1-.65,7.24,128.7,128.7,0,0,1-4.75,13.46c-3.45,8.77-7.79,17.11-11.85,25.58a23,23,0,0,0-1.89,8.91,7.75,7.75,0,0,0,.57,2.78,25.06,25.06,0,0,0,2.18,4.59c.72,1.23.7,1.35-.51,2.07a20.82,20.82,0,0,1-2.91,1.46,56.31,56.31,0,0,1-17.68,3.6,10.32,10.32,0,0,1-2.83-.3c-2.74-.6-3.83-1.9-3.73-4.73a47.86,47.86,0,0,1,.93-8.09A2.51,2.51,0,0,0,122.71,139.24Z" fill="#fff"/><path d="M365.67,96c1.43-1.36,2.49-2.4,3.58-3.39A58.42,58.42,0,0,1,384.85,82a19.49,19.49,0,0,1,5.88-1.62c5.16-.54,8.87,2,11.87,5.82a17.28,17.28,0,0,1,3.79,10.31,15.77,15.77,0,0,1-.74,5.33c-3.81,12.16-10.49,23-15.57,34.59a23,23,0,0,0-1.68,5,4.15,4.15,0,0,0,.89,3.61c.95,1.15,1.92,2.28,3,3.51a4.37,4.37,0,0,1-1.83,1.19c-6.06,3-12.53,3.88-19.21,3.69a18.58,18.58,0,0,1-5-.78c-3.71-1.18-5.62-4-5.18-8.38a34.82,34.82,0,0,1,3.38-11,85,85,0,0,1,10.27-16.38,76,76,0,0,0,6-8.45,25.61,25.61,0,0,0,2.69-6.57,11.77,11.77,0,0,0,.23-2.84,2.51,2.51,0,0,0-2.42-2.6,2.4,2.4,0,0,0-1.09.2,34.2,34.2,0,0,0-10.58,6,43.43,43.43,0,0,0-12,16.76,179.23,179.23,0,0,0-9.33,28.86c-.2.84-.39,1.52-1.31,1.85-3.95,1.45-7.88,3-12.1,3.49a10.25,10.25,0,0,1-6.48-1.27,5.44,5.44,0,0,1-2.89-6.35A118.07,118.07,0,0,1,330,130.5c4.28-12.24,8.64-24.44,12.89-36.68,1.16-3.32,2.54-6.6,2.78-10.17.05-.62.45-.74.95-.86a85.05,85.05,0,0,1,13.63-2.37,15,15,0,0,1,1.64,0c2.8.08,3.62.7,4.23,3.41A24.83,24.83,0,0,1,366,94.33C365.94,94.73,365.86,95.12,365.67,96Z" fill="#fff"/><path d="M306.2,97.8A14.91,14.91,0,0,1,324.05,95c3.24,1.91,4.34,5.11,4.59,8.63a35.19,35.19,0,0,1-3.21,17.06,74.17,74.17,0,0,1-15.91,23.24c-4.76,4.61-10.16,8.21-16.76,9.59a33.15,33.15,0,0,1-16.14-.37c-7.14-2-11.4-6.8-12.94-14a36.81,36.81,0,0,1,.07-13.76c1.36-8.18,3.92-15.93,8.69-22.83A56.19,56.19,0,0,1,289.88,86a44,44,0,0,1,15.6-6.18,22.78,22.78,0,0,1,10.88.6,17.59,17.59,0,0,1,10.4,9.1c-.56.48-1,.24-1.47.18-10.4-1.49-19.51,1-27,8.64a31.22,31.22,0,0,0-5.28,7.37,53,53,0,0,0-5.82,16.22,17.73,17.73,0,0,0,.6,9.44,9.16,9.16,0,0,0,4.84,5.27,5.59,5.59,0,0,0,4.36.16,19.33,19.33,0,0,0,9.67-8.09,28.09,28.09,0,0,0,4.29-13.45,38.77,38.77,0,0,0-.43-12C309.93,100.79,309,98.59,306.2,97.8Z" fill="#fff"/><path d="M210.8,108.93a35.92,35.92,0,0,0-.67-11,11.84,11.84,0,0,0-1.54-3.75,6.06,6.06,0,0,0-6.45-2.89,21.27,21.27,0,0,0-3.8.65A6.23,6.23,0,0,0,194,97.68a10.67,10.67,0,0,0,4.63,10c.65.49,1.32,1,2,1.38,2.4,1.37,4.81,2.7,7.22,4.07,6.08,3.46,9.72,8.62,9.24,15.7a20.93,20.93,0,0,1-5.44,12.28c-6.1,7.13-14,11.07-23.13,12.61a36.76,36.76,0,0,1-16.16-.79,24.08,24.08,0,0,1-6.34-2.73,12.71,12.71,0,0,1-6.16-8.72,17.24,17.24,0,0,1,5.67-16.67c.78.07.77.67.92,1.06,2.75,7.13,8.12,11,15.45,12.41a15,15,0,0,0,9.17-.92,9.35,9.35,0,0,0,3.35-2.27,4.68,4.68,0,0,0-.24-6.61,15.42,15.42,0,0,0-4.12-2.6c-4.8-2.4-9.6-4.8-14.26-7.47a14.52,14.52,0,0,1-5-4.41,12.18,12.18,0,0,1-1.63-10.14A29.23,29.23,0,0,1,180.78,87a42.7,42.7,0,0,1,29.6-8.17,18.56,18.56,0,0,1,14.45,8.1c2.8,4.1,2.76,8-.1,12.11a22.57,22.57,0,0,1-5.54,5.36A34.82,34.82,0,0,1,210.8,108.93Z" fill="#fff"/><path d="M251.84,148.32a18.5,18.5,0,0,1-11.11,5.76,31.78,31.78,0,0,1-9.54.18c-5.23-.8-8.2-3.84-8.78-9.14a34,34,0,0,1,1.18-11.88c2-7.94,5.11-15.44,8.36-22.91,2.84-6.53,6-12.91,8.63-19.53A17.56,17.56,0,0,0,242,85.94c.06-.53.22-.9.77-1,6.15-1.69,12.26-3.6,18.76-3.32a8.55,8.55,0,0,1,3.33.86A3.39,3.39,0,0,1,267,86a13.09,13.09,0,0,1-.58,2.78,156.59,156.59,0,0,1-5.86,15.61c-3.51,8.55-7.2,17-9.66,26a32.12,32.12,0,0,0-.75,14.52A6.9,6.9,0,0,0,251.84,148.32Z" fill="#fff"/><path d="M274.39,61.15a14.43,14.43,0,0,1-7.55,12,19.63,19.63,0,0,1-13.19,2.26,7.21,7.21,0,0,1-6.26-7.2c-.27-5.93,2.65-10.13,7.52-13a17.42,17.42,0,0,1,12.38-2.14c2.78.52,5.12,1.77,6.42,4.48A8,8,0,0,1,274.39,61.15Z" fill="#fff"/></svg>