<svg xmlns="http://www.w3.org/2000/svg" xmlns:xlink="http://www.w3.org/1999/xlink" width="17" height="17" viewBox="0 0 17 17"><defs><clipPath id="a"><rect width="17" height="17" fill="none"/></clipPath></defs><g clip-path="url(#a)"><path d="M15.25,4.68H11.86a7.31,7.31,0,0,0-.89-3A3,3,0,0,0,8.52,0,3,3,0,0,0,6.07,1.7a7.45,7.45,0,0,0-.88,3H1.8a.72.72,0,0,0-.73.71v0l.68,9.49a1.85,1.85,0,0,0,1.83,1.87h9.8A1.84,1.84,0,0,0,15.3,15v-.12L16,5.41a.72.72,0,0,0-.7-.73ZM6.8,2.13A2.16,2.16,0,0,1,8.52.85a2.13,2.13,0,0,1,1.71,1.28A6.25,6.25,0,0,1,11,4.68H6A6.39,6.39,0,0,1,6.8,2.13Zm4.26,10.76a1.94,1.94,0,0,1-.25.57l-.06.1a2.13,2.13,0,0,1-1.85.93,5,5,0,0,1-2.49-.82c-.12-.07-.24-.14-.35-.22a.34.34,0,0,1,.37-.58h0l.32.2a4.18,4.18,0,0,0,2.14.72,1.46,1.46,0,0,0,1.28-.63.15.15,0,0,1,0-.06,2.87,2.87,0,0,0,.18-.4,1.24,1.24,0,0,0-.05-.83,1.73,1.73,0,0,0-.72-.77,3.62,3.62,0,0,0-.91-.37,3.67,3.67,0,0,1-2-1.13,1.74,1.74,0,0,1,0-2,2,2,0,0,1,1.62-.92,4.33,4.33,0,0,1,2.21.5.34.34,0,0,1,.17.46.34.34,0,0,1-.45.17h0a3.61,3.61,0,0,0-1.85-.44,1.27,1.27,0,0,0-1.06.56,1.08,1.08,0,0,0,0,1.25,3,3,0,0,0,1.61.87,4.76,4.76,0,0,1,1.09.46,2.44,2.44,0,0,1,1,1.08A1.88,1.88,0,0,1,11.06,12.89Z" fill="#fff"/></g></svg>